<?xml version="1.0" encoding="utf-8"?>
<!-- Generator: Adobe Illustrator 19.2.1, SVG Export Plug-In . SVG Version: 6.00 Build 0)  -->
<svg version="1.1" id="layer" xmlns="http://www.w3.org/2000/svg" xmlns:xlink="http://www.w3.org/1999/xlink" x="0px" y="0px"
	 viewBox="0 0 652 652" style="enable-background:new 0 0 652 652;" xml:space="preserve">
<style type="text/css">
	.st0{fill:#D24D57;}
	.st1{fill:#446CB3;}
</style>
<path class="st0" d="M127.4,365.5l17.1,29.5l8.2-5.1l2.9-9.8l-18.3-31.7L127.4,365.5z M72.2,248.7l-8.1,7l21.6,37.3l9.9-17
	l-19.7-34.1L72.2,248.7z M90.7,340l-24,41.5l3,11l7.4,5.2l34.6-59.9l9.9-17.1l38.3-66.4l-6.4-8.8l-2.2-3.1l-9.3,8.6L90.7,340z"/>
<path class="st1" d="M71.4,234.2l-9.9,17.1h0l-30.3,52.5l0,0l-9.9,17.1l50,86.7l9.9-17.1l-40.2-69.6l40.2-69.6H110l9.9-17.1H71.4z
	 M142,251.3l40.2,69.6L142,390.5h-28.7l-9.9,17.1h48.5l9.9-17.1L192,338l9.9-17.1l-9.9-17.2l-30.3-52.4l-9.8-17.1L142,251.3z"/>
<path class="st1" d="M286.7,289.8l-18.3,26.7L250,289.8h-14.6l25.5,35.8l-26.8,37.5h14.6l19.7-28.2l19.6,28.2h14.6l-26.8-37.5
	l25.5-35.8H286.7z M342.1,299.4c5.3,0,9.5,1.7,12.3,5.1c2.7,3.3,4.2,8,4.3,14.2h-35.4c0.7-5.9,2.6-10.6,5.7-14
	C332.3,301.2,336.7,299.4,342.1,299.4 M342.3,288.5c-9.8,0-17.7,3.5-23.6,10.5c-5.8,6.9-8.7,16.4-8.7,28c0,11.6,3.2,20.9,9.4,27.4
	c6.3,6.6,14.9,9.9,25.7,9.9c4.9,0,9.1-0.4,12.6-1.1c3.5-0.7,7.2-1.9,11-3.6l0.6-0.2v-11.7l-1.3,0.6c-7.4,3.2-14.9,4.7-22.5,4.7
	c-7,0-12.5-2.1-16.3-6.2c-3.7-4-5.7-9.9-6.1-17.5h49.2v-7.8c0-9.8-2.7-17.9-8.1-23.9C358.9,291.6,351.5,288.5,342.3,288.5
	 M423.6,288.5c-5,0-9.7,1-13.8,3c-3.6,1.8-6.6,4.2-8.8,7.2l-1.6-8.9h-10.5v73.3h12.7v-38.4c0-9,1.7-15.6,5-19.4
	c3.3-3.8,8.6-5.7,15.7-5.7c5.4,0,9.3,1.3,11.8,4c2.5,2.7,3.7,6.9,3.7,12.4v47.1h12.7v-47.5c0-9.3-2.3-16.3-6.8-20.6
	C439.2,290.7,432.5,288.5,423.6,288.5 M498.9,353.5c-6.2,0-10.8-2.2-14-6.6c-3.2-4.5-4.8-11.2-4.8-20.1c0-8.8,1.6-15.6,4.9-20.4
	c3.2-4.7,7.7-7,13.8-7c7.1,0,12.2,2.1,15.4,6.1c3.2,4.1,4.9,11.2,4.9,21.1v2.3c0,8.7-1.6,15-4.8,18.9
	C511.1,351.6,506,353.5,498.9,353.5z M519,289.9l0.3,5.1l0.3,3.2c-5.3-6.4-12.7-9.7-22.1-9.7c-9.6,0-17.1,3.4-22.5,10.1
	c-5.3,6.7-8,16.1-8,28c0,11.9,2.7,21.3,8,27.8c5.4,6.6,12.9,9.9,22.5,9.9c9.7,0,17.2-3.4,22.4-10.1l1.3,8.8h10.5V259.8H519
	L519,289.9L519,289.9z M559.2,263.3c-2.1,0-3.8,0.7-5.2,2c-1.4,1.3-2.1,3.4-2.1,6.1c0,2.7,0.7,4.7,2.1,6.1c1.4,1.4,3.1,2.1,5.2,2.1
	c2,0,3.7-0.7,5.1-2c1.4-1.4,2.2-3.4,2.2-6.1c0-2.7-0.7-4.7-2.2-6.1C562.9,263.9,561.2,263.3,559.2,263.3 M552.8,363.1h12.7v-73.3
	h-12.7V363.1z M620.2,352.4c-1,0.3-2.4,0.6-4.1,0.9c-1.7,0.3-3.5,0.4-5.4,0.4c-3.3,0-5.8-1-7.7-3.1c-1.9-2.1-2.8-5.2-2.8-9.3v-41.1
	h20.8v-10.3h-20.8v-16.6h-7.9l-4.6,15.5l-10.4,4.6v6.7h10.2v41.6c0,15.1,7.3,22.8,21.7,22.8c1.9,0,4-0.2,6.3-0.6
	c2.4-0.4,4.2-0.9,5.4-1.5l0.5-0.3V352L620.2,352.4L620.2,352.4z"/>
</svg>
